# xmcd
#
# Track frame offsets: 
#        150
#        16179
#        32349
#        48884
#        66406
#        83279
#        97903
#        119080
#        136222
#        149602
#        163738
#        183509
#        199817
#        216303
#        230071
#        249669
#        264450
#        277936
#        293426
#        312397
#        327264
#
# Disc length: 4600 seconds
#
# Revision: 3
# Processed by: cddbd v1.5.2PL0 Copyright (c) Steve Scherf et al.
# Submitted via: ExactAudioCopy v0.90b4
#
DISCID=3011f615
DTITLE=Various Artist - Absolute Music 34 [CD2]
DYEAR=2000
DGENRE=Top 40
TTITLE0=E-Type - Campione 2000
TTITLE1=ATC - Around The World (La La La La La)
TTITLE2=Da Buzz - Do You Want Me
TTITLE3=Lady Violet - Beautiful World
TTITLE4=Darude - Sandstorm
TTITLE5=Alice Deejay - Will I Ever
TTITLE6=Robyn - Main Thing
TTITLE7=Destiny's Child - Jumpin Jumpin
TTITLE8=DJ Mendez - Fiesta (House Party)
TTITLE9=Nsync - I'll Never Stop
TTITLE10=Vitamin C - Graduation (Friends Forever)
TTITLE11=Girl Thing - Last One Standing
TTITLE12=Teddybears Sthlm - Rock n'Roll Highschool
TTITLE13=Brainstorm - My Star
TTITLE14=Anders Glenmark and Søs Fenger - Kom Karavaner
TTITLE15=Jessica Simpson - I Think I'm In Love With You
TTITLE16=Camilla Brinck - Bye Bye Forever (Chiki Chiki)
TTITLE17=P!nk - There You Go
TTITLE18=En Vouge - Riddle
TTITLE19=Shimoli - Damned
TTITLE20=Christina Aguilera - I Turn To You
EXTD=\n\nYEAR: 2000  ID3G:   0
EXTT0=
EXTT1=
EXTT2=
EXTT3=
EXTT4=
EXTT5=
EXTT6=
EXTT7=
EXTT8=
EXTT9=
EXTT10=
EXTT11=
EXTT12=
EXTT13=
EXTT14=
EXTT15=
EXTT16=
EXTT17=
EXTT18=
EXTT19=
EXTT20=
PLAYORDER=
